<?xml version="1.0" encoding="utf-8"?>
<!-- Generator: Adobe Illustrator 24.0.0, SVG Export Plug-In . SVG Version: 6.00 Build 0)  -->
<svg version="1.1" id="Layer_1" xmlns="http://www.w3.org/2000/svg" xmlns:xlink="http://www.w3.org/1999/xlink" x="0px" y="0px"
	 viewBox="0 0 49 48" style="enable-background:new 0 0 49 48;" xml:space="preserve">
<style type="text/css">
	.st0{fill-rule:evenodd;clip-rule:evenodd;fill:#FFFFFF;}
	.st1{fill:none;stroke:#000000;stroke-width:2;stroke-miterlimit:10;}
	.st2{font-family:'AbrilFatface-Regular';}
	.st3{font-size:8px;}
</style>
<path class="st0" d="M15.5,21c1.2-4.8,4.2-7.2,9-7.2c7.2,0,8.1,5.4,11.7,6.3c2.4,0.6,4.5-0.3,6.3-2.7c-1.2,4.8-4.2,7.2-9,7.2
	c-7.2,0-8.1-5.4-11.7-6.3C19.4,17.7,17.3,18.6,15.5,21z M6.5,31.8c1.2-4.8,4.2-7.2,9-7.2c7.2,0,8.1,5.4,11.7,6.3
	c2.4,0.6,4.5-0.3,6.3-2.7c-1.2,4.8-4.2,7.2-9,7.2c-7.2,0-8.1-5.4-11.7-6.3C10.4,28.5,8.3,29.4,6.5,31.8z"/>
<rect x="3.5" y="2" class="st1" width="42" height="44"/>
<text transform="matrix(1 0 0 1 6.0648 34.8546)" class="st2 st3">NFT</text>
<text transform="matrix(1 0 0 1 6.0648 41.8546)" class="st2 st3">S2DIO</text>
</svg>
