<?xml version="1.0" encoding="utf-8"?>
<!-- Generator: Adobe Illustrator 24.0.0, SVG Export Plug-In . SVG Version: 6.00 Build 0)  -->
<svg version="1.1" id="Layer_1" xmlns="http://www.w3.org/2000/svg" xmlns:xlink="http://www.w3.org/1999/xlink" x="0px" y="0px"
	 viewBox="0 0 526 100" style="enable-background:new 0 0 526 100;" xml:space="preserve">
<style type="text/css">
	.st0{fill:none;stroke:#FFFFFF;stroke-width:2;stroke-miterlimit:10;}
	.st1{fill:#FFFFFF;}
	.st2{font-family:'AbrilFatface-Regular';}
	.st3{font-size:14.0909px;}
	.st4{fill:#D8D8D8;}
	.st5{fill:#FCFCFC;}
	.st6{fill:#E5E5E5;}
	.st7{fill:#D3D3D3;}
	.st8{fill:#969393;}
	.st9{fill:#D6D4D4;}
	.st10{fill:#BABAB3;}
</style>
<rect x="51.5" y="13.5" class="st0" width="74" height="77.5"/>
<text transform="matrix(1 0 0 1 56.5539 71.4134)" class="st1 st2 st3">NFT</text>
<text transform="matrix(1 0 0 1 56.5539 83.7425)" class="st1 st2 st3">S2DIO</text>
<g>
	<polygon class="st4" points="198,3.6 197.4,5.7 197.4,67.1 198,67.7 226.5,50.9 	"/>
	<polygon class="st5" points="198,3.6 169.5,50.9 198,67.7 198,37.9 	"/>
	<polygon class="st6" points="198,73.1 197.6,73.5 197.6,95.4 198,96.4 226.5,56.3 	"/>
	<polygon class="st7" points="198,96.4 198,73.1 169.5,56.3 	"/>
	<polygon class="st8" points="198,67.7 226.5,50.9 198,37.9 	"/>
	<polygon class="st9" points="169.5,50.9 198,67.7 198,37.9 	"/>
</g>
<path class="st1" d="M298,68.2c0.5-0.5,1.1-0.7,1.8-0.7h61.4c1.1,0,1.7,1.4,0.9,2.1l-12.1,12.1c-0.5,0.5-1.1,0.7-1.8,0.7h-61.4
	c-1.1,0-1.7-1.4-0.9-2.1L298,68.2z"/>
<path class="st1" d="M298,22.9c0.5-0.5,1.1-0.7,1.8-0.7h61.4c1.1,0,1.7,1.4,0.9,2.1l-12.1,12.1c-0.5,0.5-1.1,0.7-1.8,0.7h-61.4
	c-1.1,0-1.7-1.4-0.9-2.1L298,22.9z"/>
<path class="st1" d="M349.9,45.4c-0.5-0.5-1.1-0.7-1.8-0.7h-61.4c-1.1,0-1.7,1.4-0.9,2.1L298,58.9c0.5,0.5,1.1,0.7,1.8,0.7h61.4
	c1.1,0,1.7-1.4,0.9-2.1L349.9,45.4z"/>
<path class="st1" d="M486.6,52.6c0,19.9-16.1,36-36,36s-36-16.1-36-36s16.1-36,36-36C470.5,16.6,486.6,32.8,486.6,52.6z"/>
<path class="st1" d="M432.4,53.9l0.1-0.2l9.4-14.6c0.1-0.2,0.4-0.2,0.6,0.1c1.6,3.5,2.9,7.9,2.3,10.6c-0.3,1.2-1,2.7-1.9,4
	c-0.1,0.2-0.2,0.4-0.4,0.6c-0.1,0.1-0.1,0.1-0.3,0.1h-9.7C432.4,54.4,432.2,54.1,432.4,53.9z"/>
<path class="st10" d="M474.1,56.6v2.3c0,0.1-0.1,0.2-0.2,0.3c-0.7,0.3-3.2,1.4-4.3,2.9c-2.7,3.7-4.7,8.9-9.1,8.9h-18.8
	c-6.6,0-12-5.4-12-12.1v-0.2c0-0.1,0.1-0.3,0.3-0.3h10.6c0.2,0,0.4,0.2,0.4,0.4c-0.1,0.6,0.1,1.4,0.4,2c0.6,1.3,1.9,2,3.3,2h5.2v-4
	h-5.1c-0.3,0-0.4-0.3-0.3-0.5c0.1-0.1,0.1-0.1,0.2-0.3c0.5-0.7,1.2-1.7,1.9-3c0.5-0.8,0.9-1.7,1.3-2.6c0.1-0.1,0.1-0.3,0.2-0.5
	c0.1-0.3,0.2-0.6,0.3-0.8c0.1-0.2,0.1-0.4,0.2-0.6c0.1-0.7,0.2-1.5,0.2-2.4c0-0.3,0-0.6-0.1-1c0-0.4-0.1-0.7-0.1-1.1
	c0-0.3-0.1-0.6-0.1-0.9c-0.1-0.5-0.1-0.9-0.3-1.4l-0.1-0.1c-0.1-0.3-0.1-0.6-0.3-0.9c-0.3-1-0.6-2-1-2.9c-0.1-0.4-0.3-0.7-0.4-1.1
	c-0.2-0.5-0.4-1-0.6-1.4c-0.1-0.2-0.2-0.4-0.3-0.6c-0.1-0.2-0.2-0.4-0.3-0.6c-0.1-0.1-0.1-0.3-0.2-0.4l-0.6-1.2
	c-0.1-0.1,0.1-0.4,0.2-0.3l4,1.1l0,0l0,0l0.5,0.1l0.6,0.1l0.2,0.1v-2.4c0-1.2,0.9-2.1,2-2.1c0.6,0,1.1,0.2,1.4,0.6
	c0.4,0.4,0.6,0.9,0.6,1.4v3.5l0.4,0.1c0,0,0.1,0,0.1,0.1c0.1,0.1,0.2,0.2,0.4,0.4c0.1,0.1,0.3,0.3,0.5,0.4c0.4,0.3,0.9,0.7,1.4,1.2
	c0.1,0.1,0.3,0.2,0.4,0.4c0.6,0.6,1.4,1.3,2.1,2.1c0.2,0.2,0.4,0.4,0.6,0.6c0.2,0.2,0.4,0.5,0.6,0.7c0.2,0.3,0.5,0.6,0.7,0.9
	c0.1,0.1,0.2,0.3,0.3,0.5c0.3,0.4,0.5,0.9,0.8,1.3c0.1,0.2,0.2,0.4,0.3,0.6c0.3,0.6,0.5,1.2,0.6,1.8c0.1,0.1,0.1,0.3,0.1,0.4l0,0
	c0.1,0.1,0.1,0.4,0.1,0.6c0.1,0.6,0,1.2-0.1,1.9c-0.1,0.3-0.1,0.5-0.2,0.8c-0.1,0.2-0.1,0.5-0.3,0.8c-0.2,0.5-0.5,1-0.8,1.5
	c-0.1,0.1-0.2,0.4-0.4,0.6s-0.3,0.4-0.4,0.6c-0.1,0.2-0.4,0.4-0.5,0.6c-0.1,0.2-0.3,0.4-0.5,0.6c-0.2,0.3-0.5,0.6-0.7,0.9
	c-0.1,0.1-0.3,0.4-0.5,0.5c-0.1,0.1-0.3,0.4-0.5,0.5c-0.2,0.2-0.4,0.4-0.6,0.6l-0.4,0.4c-0.1,0.1-0.1,0.1-0.2,0.1h-3.2v4h4
	c0.9,0,1.7-0.3,2.4-0.9c0.2-0.2,1.2-1.1,2.4-2.4c0.1-0.1,0.1-0.1,0.1-0.1l10.9-3.2C473.9,56.2,474.1,56.4,474.1,56.6z"/>
</svg>
